<svg width="290" height="69" viewBox="0 0 290 69" fill="none" xmlns="http://www.w3.org/2000/svg">
<path d="M51.0938 8.01562C51.0938 9.70312 50.7656 10.8281 50.1094 11.3906C49.4844 11.9219 48.7969 12.1875 48.0469 12.1875C48.0156 12.1875 47.9844 12.1875 47.9531 12.1875C47.2031 12.1875 45.9844 11.8594 44.2969 11.2031C42.5781 10.5156 40.5469 10.1719 38.2031 10.1719C35.8906 10.1719 34.1875 10.5781 33.0938 11.3906C32.0312 12.2031 31.2969 13.3906 30.8906 14.9531C30.5156 16.4844 30.0156 22.9375 29.3906 34.3125C28.7969 45.6562 28.5 52.0625 28.5 53.5312C28.5 54.9688 28.8125 56.875 29.4375 59.25C30.0625 61.625 30.375 62.9219 30.375 63.1406C30.375 64.6719 29.6719 65.8594 28.2656 66.7031C26.8906 67.5469 24.9688 67.9688 22.5 67.9688C20.0312 67.9688 18.125 67.5625 16.7812 66.75C15.4375 65.9062 14.7656 64.75 14.7656 63.2812C14.7656 62.625 15.25 61.2344 16.2188 59.1094C17.2188 56.9531 17.8594 54.8438 18.1406 52.7812C19.3281 43.625 19.9219 32.6406 19.9219 19.8281C19.9219 15.9844 19.4844 13.4531 18.6094 12.2344C17.7344 10.9844 16.2031 10.3594 14.0156 10.3594C11.8281 10.3594 9.46875 10.8438 6.9375 11.8125C4.40625 12.75 2.85938 13.2188 2.29688 13.2188C0.765625 13.2188 0 11.6094 0 8.39062C0 5.17187 1.5 3.3125 4.5 2.8125C7.5 2.28125 16.9531 2.01562 32.8594 2.01562H35.5781L38.25 1.96875C44.0625 1.96875 47.3594 2.09375 48.1406 2.34375C50.1094 2.96875 51.0938 4.5 51.0938 6.9375V8.01562ZM62.2969 67.125C58.6094 67.125 56.7656 65.8125 56.7656 63.1875C56.7656 62 57.0469 60.2344 57.6094 57.8906C58.2031 55.5469 58.5938 53.3906 58.7812 51.4219C58.9688 49.4219 59.2969 42.9844 59.7656 32.1094C60.2656 21.2344 60.5156 14.6094 60.5156 12.2344V6.70312L60.2344 2.76562C60.2344 1.29688 61.5781 0.5625 64.2656 0.5625C66.9844 0.5625 68.75 1.60937 69.5625 3.70312C69.9688 4.76563 70.1719 8.23438 70.1719 14.1094C70.1719 19.9844 70.2812 23.3281 70.5 24.1406C70.75 24.9531 71.3906 25.3594 72.4219 25.3594C72.5469 25.3594 73.1406 25.1719 74.2031 24.7969L75.2344 24.4219C78.5781 23.1094 81.4688 22.4531 83.9062 22.4531C89.0312 22.4531 92.6719 24.4531 94.8281 28.4531C96.2656 31.1094 96.9844 36.8906 96.9844 45.7969C96.9844 49.9844 97.0156 52.4688 97.0781 53.25C97.1406 54.0312 97.3438 55.4531 97.6875 57.5156C98.0312 59.5469 98.2031 60.6719 98.2031 60.8906C98.2031 62.7344 97.7812 64.1094 96.9375 65.0156C96.125 65.8906 94.6406 66.3281 92.4844 66.3281C90.3594 66.3281 88.9688 65.6719 88.3125 64.3594C87.9688 63.6719 87.7969 61.6875 87.7969 58.4062L87.6562 50.1562L87.7969 42.7031C87.7969 34.3594 85.3594 30.1875 80.4844 30.1875C76.1719 30.1875 73.0938 32 71.25 35.625C69.4062 39.25 68.4844 45.9688 68.4844 55.7812L68.625 60.8906C68.625 62.6406 68.0781 64.125 66.9844 65.3438C65.8906 66.5312 64.3281 67.125 62.2969 67.125ZM125.391 7.07812V7.64062C125.391 9.23438 124.922 10.5938 123.984 11.7188C123.078 12.8125 121.672 13.3594 119.766 13.3594H119.016L117.562 13.1719C116.719 13.1719 115.906 12.7812 115.125 12C114.344 11.2188 113.953 10.0469 113.953 8.48438V7.92188L114.188 6.23438C114.188 5.57812 114.578 4.76563 115.359 3.79688C116.172 2.82812 117.203 2.34375 118.453 2.34375L119.531 2.20312H120.469L121.781 2.39062C122.594 2.39062 123.391 2.79688 124.172 3.60938C124.984 4.39063 125.391 5.54687 125.391 7.07812ZM123.188 26.8594L122.672 39.4688L122.578 40.7344L122.438 44.5781V46.4062C122.438 50.9062 122.562 53.8594 122.812 55.2656C123.094 56.6719 123.609 58.0469 124.359 59.3906C125.109 60.7031 125.484 61.6562 125.484 62.25V62.6719C125.484 64.2031 124.703 65.4219 123.141 66.3281C121.578 67.2344 119.453 67.6875 116.766 67.6875H115.594C114.031 67.6875 112.844 67.3438 112.031 66.6562C111.219 65.9375 110.812 65.1719 110.812 64.3594V63.3281C110.812 62.9219 111.172 61.4844 111.891 59.0156C112.609 56.5156 112.969 53.125 112.969 48.8438C113.062 47.625 113.109 46.7812 113.109 46.3125L113.25 43.7344L113.344 42.4688C113.5 40.2812 113.578 38.5781 113.578 37.3594L113.625 35.4844C113.625 33.1406 113.234 31.0625 112.453 29.25C111.703 27.4375 111.328 26.3125 111.328 25.875C111.328 23.625 113.453 22.5 117.703 22.5H119.391C120.984 22.5 122.016 22.9219 122.484 23.7656C122.953 24.5781 123.188 25.6094 123.188 26.8594ZM140.016 43.6406V40.0312C140.016 35.6875 139.781 32.5156 139.312 30.5156C138.844 28.4844 138.609 27.0625 138.609 26.25C138.609 24.3438 140 23.3906 142.781 23.3906C145.562 23.3906 147.578 23.9062 148.828 24.9375C149.172 25.2188 149.609 25.7656 150.141 26.5781C150.703 27.3906 151.203 27.7969 151.641 27.7969C151.734 27.7969 153.094 27 155.719 25.4062C158.344 23.8125 160.594 23.0156 162.469 23.0156H163.172C164.703 23.0156 165.922 23.3906 166.828 24.1406C167.734 24.8594 168.188 25.75 168.188 26.8125V27.4219C168.188 28.7031 167.734 29.625 166.828 30.1875C165.953 30.75 164.547 31.0312 162.609 31.0312C158.203 31.0312 154.984 32.5781 152.953 35.6719C150.953 38.7656 149.953 44.2344 149.953 52.0781C149.953 53.2031 150.141 54.9375 150.516 57.2812C150.922 59.625 151.125 61.3906 151.125 62.5781C151.125 63.7656 150.484 64.9062 149.203 66C147.922 67.0938 146.297 67.6406 144.328 67.6406H142.734C141.016 67.6406 139.688 67.2344 138.75 66.4219C137.844 65.5781 137.391 64.5625 137.391 63.375C137.391 62.1562 137.609 60.9219 138.047 59.6719C139.234 56.2969 139.828 52.5781 139.828 48.5156C139.953 46.2656 140.016 44.6406 140.016 43.6406ZM191.016 7.07812V7.64062C191.016 9.23438 190.547 10.5938 189.609 11.7188C188.703 12.8125 187.297 13.3594 185.391 13.3594H184.641L183.188 13.1719C182.344 13.1719 181.531 12.7812 180.75 12C179.969 11.2188 179.578 10.0469 179.578 8.48438V7.92188L179.812 6.23438C179.812 5.57812 180.203 4.76563 180.984 3.79688C181.797 2.82812 182.828 2.34375 184.078 2.34375L185.156 2.20312H186.094L187.406 2.39062C188.219 2.39062 189.016 2.79688 189.797 3.60938C190.609 4.39063 191.016 5.54687 191.016 7.07812ZM188.812 26.8594L188.297 39.4688L188.203 40.7344L188.062 44.5781V46.4062C188.062 50.9062 188.188 53.8594 188.438 55.2656C188.719 56.6719 189.234 58.0469 189.984 59.3906C190.734 60.7031 191.109 61.6562 191.109 62.25V62.6719C191.109 64.2031 190.328 65.4219 188.766 66.3281C187.203 67.2344 185.078 67.6875 182.391 67.6875H181.219C179.656 67.6875 178.469 67.3438 177.656 66.6562C176.844 65.9375 176.438 65.1719 176.438 64.3594V63.3281C176.438 62.9219 176.797 61.4844 177.516 59.0156C178.234 56.5156 178.594 53.125 178.594 48.8438C178.688 47.625 178.734 46.7812 178.734 46.3125L178.875 43.7344L178.969 42.4688C179.125 40.2812 179.203 38.5781 179.203 37.3594L179.25 35.4844C179.25 33.1406 178.859 31.0625 178.078 29.25C177.328 27.4375 176.953 26.3125 176.953 25.875C176.953 23.625 179.078 22.5 183.328 22.5H185.016C186.609 22.5 187.641 22.9219 188.109 23.7656C188.578 24.5781 188.812 25.6094 188.812 26.8594ZM219.281 47.4844C216.5 47.4844 215.109 51.1562 215.109 58.5C215.109 61.6875 214.453 63.8438 213.141 64.9688C211.828 66.0938 210.25 66.6562 208.406 66.6562C206.562 66.6562 205.25 66.3438 204.469 65.7188C203.719 65.0938 203.344 63.9219 203.344 62.2031C203.344 62.0781 203.516 60.8438 203.859 58.5C204.203 56.1562 204.641 48.875 205.172 36.6562C205.703 24.4062 205.969 16.9219 205.969 14.2031C205.969 11.4844 205.891 9.71875 205.734 8.90625C205.609 8.0625 205.391 7.04687 205.078 5.85938C204.797 4.67188 204.656 3.92188 204.656 3.60938C204.656 2.23438 205.109 1.29688 206.016 0.796875C206.953 0.265625 208.5 0 210.656 0C212.844 0 214.281 0.5625 214.969 1.6875C215.688 2.8125 216.047 5.07812 216.047 8.48438L215.438 28.3594C215.438 34.0469 216.094 36.8906 217.406 36.8906C218.438 36.8906 220.969 34.7656 225 30.5156C229.062 26.2656 231.141 24.1094 231.234 24.0469C232.484 23.1719 234.375 22.7344 236.906 22.7344C239.438 22.7344 240.703 23.3594 240.703 24.6094C240.703 25.2344 238.688 27.875 234.656 32.5312C230.625 37.1875 228.609 40.6094 228.609 42.7969C228.609 43.9844 230.906 47.8906 235.5 54.5156C237.156 56.8906 238.719 58.9531 240.188 60.7031C241.688 62.4219 242.438 63.6562 242.438 64.4062C242.438 65.9688 240.984 66.75 238.078 66.75C235.203 66.75 232.984 65.9219 231.422 64.2656C231.047 63.8594 230.172 62.4844 228.797 60.1406C227.422 57.7969 226.453 56.1562 225.891 55.2188C222.672 50.0625 220.469 47.4844 219.281 47.4844ZM260.719 39.5156V40.2656C260.719 41.2031 261.578 41.6719 263.297 41.6719H264.422L264.703 41.625L267 41.4375C269.406 41.0938 270.969 40.9219 271.688 40.9219C275.094 40.9219 277.656 40.2812 279.375 39C280.188 38.375 280.594 37.2656 280.594 35.6719V35.1562C280.594 32.8125 279.812 30.9531 278.25 29.5781C276.719 28.2031 274.875 27.5156 272.719 27.5156H272.391L272.109 27.5625C269.078 27.5625 266.422 28.8438 264.141 31.4062C261.859 33.9688 260.719 36.6719 260.719 39.5156ZM270.938 68.625H269.906C263.938 68.625 259.188 66.7344 255.656 62.9531C252.125 59.1406 250.359 54.0625 250.359 47.7188V45.6562C250.359 42.625 250.953 39.5469 252.141 36.4219C254.547 30.1719 258.469 25.8594 263.906 23.4844C266.781 22.2031 269.703 21.5625 272.672 21.5625H274.688C278.781 21.5625 282.234 22.9375 285.047 25.6875C287.891 28.4062 289.312 31.9219 289.312 36.2344V37.1719C289.312 40.2344 288.094 42.4062 285.656 43.6875C283.969 44.5938 280.031 45.5 273.844 46.4062C267.656 47.3125 264.281 47.8594 263.719 48.0469C261.844 48.7031 260.906 49.9531 260.906 51.7969C260.906 54.3594 262 56.5469 264.188 58.3594C266.375 60.1719 269.312 61.0781 273 61.0781C274.719 61.0781 277.062 60.6094 280.031 59.6719C283 58.7344 284.719 58.2656 285.188 58.2656C286.781 58.2656 287.578 58.9531 287.578 60.3281C287.578 62.1719 285.781 64.0156 282.188 65.8594C278.594 67.7031 274.844 68.625 270.938 68.625Z" fill="black"/>
</svg>
